<?xml version="1.0" encoding="iso-8859-1"?>
<!-- Generator: Adobe Illustrator 18.0.0, SVG Export Plug-In . SVG Version: 6.00 Build 0)  -->
<!DOCTYPE svg PUBLIC "-//W3C//DTD SVG 1.1//EN" "http://www.w3.org/Graphics/SVG/1.1/DTD/svg11.dtd">
<svg xmlns="http://www.w3.org/2000/svg" xmlns:xlink="http://www.w3.org/1999/xlink" version="1.1" id="Capa_1" x="0px" y="0px" viewBox="0 0 297 297" style="enable-background:new 0 0 297 297;" xml:space="preserve" width="512px" height="512px">
<g>
	<path d="M133.103,123.166c-18.212,0-33.028,14.818-33.028,33.033c0,18.217,14.816,33.039,33.028,33.039   s33.027-14.822,33.027-33.039C166.131,137.984,151.315,123.166,133.103,123.166z M133.103,169.371   c-7.258,0-13.162-5.908-13.162-13.172c0-7.262,5.904-13.168,13.162-13.168c7.257,0,13.161,5.906,13.161,13.168   C146.265,163.463,140.36,169.371,133.103,169.371z" fill="#ffc914"/>
	<path d="M133.103,202.275c-25.393,0-46.053-20.67-46.053-46.076c0-5.486-4.448-9.934-9.934-9.934c-5.485,0-9.933,4.447-9.933,9.934   c0,36.359,29.571,65.941,65.919,65.941c5.485,0,9.934-4.447,9.934-9.932C143.037,206.723,138.589,202.275,133.103,202.275z" fill="#ffc914"/>
	<path d="M199.024,156.199c0-36.359-29.571-65.938-65.921-65.938c-5.485,0-9.933,4.447-9.933,9.932c0,5.486,4.447,9.934,9.933,9.934   c25.395,0,46.055,20.668,46.055,46.072c0,5.484,4.447,9.932,9.933,9.932C194.576,166.131,199.024,161.684,199.024,156.199z" fill="#ffc914"/>
	<path d="M133.103,239.613c-45.976,0-83.379-37.42-83.379-83.414c0-5.486-4.447-9.934-9.933-9.934c-5.486,0-9.934,4.447-9.934,9.934   c0,56.947,46.316,103.279,103.245,103.279c5.485,0,9.934-4.447,9.934-9.934C143.037,244.061,138.589,239.613,133.103,239.613z" fill="#ffc914"/>
	<path d="M133.103,72.787c45.974,0,83.376,37.418,83.376,83.412c0,5.484,4.448,9.932,9.934,9.932c5.485,0,9.933-4.447,9.933-9.932   c0-56.947-46.314-103.277-103.242-103.277c-5.485,0-9.933,4.447-9.933,9.934C123.171,68.34,127.618,72.787,133.103,72.787z" fill="#ffc914"/>
	<path d="M266.201,156.428c0-73.418-59.706-133.377-133.098-133.377C59.71,23.051,0,82.781,0,156.199   c0,73.42,59.71,133.152,133.103,133.152c65.14,0,119.495-47.059,130.897-108.975l27.891-15.496   c3.154-1.752,5.109-5.074,5.109-8.682V17.582c0-5.486-4.447-9.934-9.934-9.934c-5.485,0-9.933,4.447-9.933,9.934v132.771   L266.201,156.428z M133.103,269.486c-62.438,0-113.237-50.82-113.237-113.287c0-62.463,50.799-113.281,113.237-113.281   s113.234,50.818,113.234,113.281c0,3.912-0.199,7.779-0.589,11.59l-52.904,29.391c-4.796,2.664-6.523,8.711-3.858,13.508   c1.814,3.268,5.201,5.111,8.691,5.111c1.633,0,3.287-0.404,4.815-1.252l37.444-20.803   C224.42,237.813,182.393,269.486,133.103,269.486z" fill="#ffc914"/>
</g>
<g>
</g>
<g>
</g>
<g>
</g>
<g>
</g>
<g>
</g>
<g>
</g>
<g>
</g>
<g>
</g>
<g>
</g>
<g>
</g>
<g>
</g>
<g>
</g>
<g>
</g>
<g>
</g>
<g>
</g>
</svg>
